<svg width="22" height="19" viewBox="0 0 22 19" fill="none" xmlns="http://www.w3.org/2000/svg">
    <path d="M19.4663 2.31681L19.4667 2.31715C19.8848 2.73504 20.2164 3.23121 20.4427 3.77731C20.669 4.32341 20.7854 4.90875 20.7854 5.49987C20.7854 6.091 20.669 6.67633 20.4427 7.22244C20.2164 7.76854 19.8848 8.26471 19.4667 8.6826L19.4665 8.68277L18.4065 9.74277L11.3336 16.8157L4.26072 9.74277L3.20072 8.68277C2.35657 7.83861 1.88232 6.69369 1.88232 5.49987C1.88232 4.30606 2.35657 3.16114 3.20072 2.31698C4.04488 1.47282 5.1898 0.998582 6.38362 0.998582C7.57743 0.998582 8.72235 1.47282 9.56651 2.31698L10.6265 3.37698C11.017 3.7675 11.6502 3.7675 12.0407 3.37698L13.1007 2.31698L13.1009 2.31681C13.5188 1.89873 14.0149 1.56707 14.5611 1.34079C15.1072 1.11451 15.6925 0.998047 16.2836 0.998047C16.8747 0.998047 17.4601 1.11451 18.0062 1.34079C18.5523 1.56707 19.0485 1.89873 19.4663 2.31681Z"
          stroke="#1D1D1D" stroke-width="2" stroke-linecap="round" stroke-linejoin="round"/>
</svg>
