<svg width="40" height="40" viewBox="0 0 40 40" fill="none" xmlns="http://www.w3.org/2000/svg">
<path fill-rule="evenodd" clip-rule="evenodd" d="M14.2856 9.07141C11.4058 9.07141 9.07129 11.4059 9.07129 14.2857V25.7143C9.07129 28.594 11.4058 30.9286 14.2856 30.9286H25.7141C28.5939 30.9286 30.9284 28.594 30.9284 25.7143V14.2857C30.9284 11.4059 28.5939 9.07141 25.7141 9.07141H14.2856ZM8.07129 14.2857C8.07129 10.8536 10.8535 8.07141 14.2856 8.07141H25.7141C29.1462 8.07141 31.9284 10.8536 31.9284 14.2857V25.7143C31.9284 29.1463 29.1462 31.9286 25.7141 31.9286H14.2856C10.8535 31.9286 8.07129 29.1463 8.07129 25.7143V14.2857ZM20.6465 15.9229C19.7994 15.7973 18.9343 15.942 18.1741 16.3364C17.414 16.7308 16.7976 17.3549 16.4126 18.1198C16.0275 18.8848 15.8935 19.7517 16.0296 20.5971C16.1656 21.4426 16.5648 22.2237 17.1704 22.8293C17.7759 23.4348 18.557 23.834 19.4025 23.97C20.248 24.1061 21.1148 23.9721 21.8798 23.5871C22.6447 23.202 23.2688 22.5856 23.6632 21.8255C24.0576 21.0654 24.2023 20.2002 24.0767 19.3531C23.9486 18.489 23.5459 17.6891 22.9282 17.0714C22.3106 16.4537 21.5106 16.0511 20.6465 15.9229ZM17.7136 15.4488C18.6604 14.9575 19.738 14.7773 20.7932 14.9337C21.8695 15.0934 22.866 15.5949 23.6353 16.3643C24.4047 17.1337 24.9063 18.1301 25.0659 19.2064C25.2223 20.2616 25.0421 21.3392 24.5508 22.2861C24.0595 23.2329 23.2822 24.0007 22.3294 24.4803C21.3765 24.9599 20.2968 25.1268 19.2436 24.9573C18.1904 24.7879 17.2175 24.2906 16.4633 23.5364C15.709 22.7821 15.2118 21.8092 15.0423 20.756C14.8728 19.7029 15.0397 18.6231 15.5193 17.6703C15.9989 16.7174 16.7667 15.9401 17.7136 15.4488ZM26.2856 13.2143C26.0094 13.2143 25.7856 13.4381 25.7856 13.7143C25.7856 13.9904 26.0094 14.2143 26.2856 14.2143H26.2965C26.5726 14.2143 26.7965 13.9904 26.7965 13.7143C26.7965 13.4381 26.5726 13.2143 26.2965 13.2143H26.2856Z" fill="#C9CDD6"/>
</svg>
