<svg width="40" height="40" viewBox="0 0 40 40" fill="none" xmlns="http://www.w3.org/2000/svg">
<path fill-rule="evenodd" clip-rule="evenodd" d="M9.09521 11C9.09521 9.94687 9.94109 9.09998 10.9762 9.09998C12.0112 9.09998 12.8571 9.94687 12.8571 11C12.8571 12.0531 12.0112 12.9 10.9762 12.9C9.94109 12.9 9.09521 12.0531 9.09521 11ZM10.9762 8.09998C9.38131 8.09998 8.09521 9.40211 8.09521 11C8.09521 12.5978 9.38131 13.9 10.9762 13.9C12.571 13.9 13.8571 12.5978 13.8571 11C13.8571 9.40211 12.571 8.09998 10.9762 8.09998ZM25.2619 16.3C23.5014 16.3 21.8122 17.0049 20.5661 18.2609C19.3199 19.5171 18.619 21.2217 18.619 23V30.9H22.3809V23C22.3809 22.2321 22.6835 21.4949 23.2233 20.9508C23.7633 20.4065 24.4965 20.1 25.2619 20.1C26.0273 20.1 26.7605 20.4065 27.3004 20.9508C27.8403 21.4949 28.1428 22.2321 28.1428 23V30.9H31.9047V23C31.9047 21.2217 31.2039 19.5171 29.9577 18.2609C28.7116 17.0049 27.0224 16.3 25.2619 16.3ZM25.2619 15.3C23.2336 15.3 21.2892 16.1122 19.8562 17.5567C18.4233 19.001 17.619 20.9591 17.619 23V31.4C17.619 31.6761 17.8429 31.9 18.119 31.9H22.8809C23.1571 31.9 23.3809 31.6761 23.3809 31.4V23C23.3809 22.4948 23.5801 22.0111 23.9333 21.6551C24.2863 21.2992 24.7643 21.1 25.2619 21.1C25.7594 21.1 26.2374 21.2992 26.5905 21.6551C26.9437 22.0111 27.1428 22.4948 27.1428 23V31.4C27.1428 31.6761 27.3667 31.9 27.6428 31.9H32.4047C32.6809 31.9 32.9047 31.6761 32.9047 31.4V23C32.9047 20.9591 32.1005 19.001 30.6676 17.5567C29.2346 16.1122 27.2902 15.3 25.2619 15.3ZM8.09521 17C8.09521 16.7238 8.31907 16.5 8.59521 16.5H13.3571C13.6333 16.5 13.8571 16.7238 13.8571 17V31.4C13.8571 31.6761 13.6333 31.9 13.3571 31.9H8.59521C8.31907 31.9 8.09521 31.6761 8.09521 31.4V17ZM9.09521 17.5V30.9H12.8571V17.5H9.09521Z" fill="#C9CDD6"/>
</svg>
