<svg width="9972" height="4109" viewBox="0 0 9972 4109" fill="none" xmlns="http://www.w3.org/2000/svg">
<rect x="2582" y="481" width="18.1173" height="1012.76" fill="#FFD37A"/>
<rect x="2557" y="1442" width="67.0339" height="103.268" rx="9.05864" fill="white"/>
<circle cx="2591.05" cy="1851.79" r="317.052" fill="#FFDE59"/>
<rect x="2274" y="1714.1" width="634.104" height="28.9876" rx="9.05864" fill="#FFD37A"/>
<path d="M2880.93 1713.2C2880.93 1660.1 2850.39 1609.18 2796.03 1571.64C2741.66 1534.09 2667.93 1513 2591.05 1513C2514.17 1513 2440.44 1534.09 2386.08 1571.64C2331.72 1609.18 2301.18 1660.1 2301.18 1713.2L2591.05 1713.2H2880.93Z" fill="white"/>
<rect x="3893.27" y="3413.2" width="117.762" height="271.759" fill="white"/>
<rect x="3893.27" y="1259.06" width="117.762" height="1056.24" fill="white"/>
<rect x="4020" y="1258.29" width="117.762" height="1649.07" transform="rotate(120.349 4020 1258.29)" fill="white"/>
<rect x="1231.56" y="1359.87" width="117.762" height="1649.07" transform="rotate(-120.35 1231.56 1359.87)" fill="white"/>
<rect x="1163" y="1259.06" width="117.762" height="2425.9" fill="white"/>
<rect x="1163" y="3684.3" width="117.762" height="2766.51" transform="rotate(-90 1163 3684.3)" fill="white"/>
<path d="M3834.26 3235.58C3820.07 3235.58 3804.1 3234.16 3786.36 3231.32C3769.33 3228.48 3753.01 3224.94 3737.4 3220.68C3722.5 3216.42 3710.79 3211.81 3702.28 3206.84C3697.31 3204 3693.41 3201.16 3690.57 3198.33C3688.44 3194.78 3687.38 3189.1 3687.38 3181.3L3682.06 3014.19C3682.06 3000 3686.67 2992.9 3695.89 2992.9C3703.7 2992.9 3709.02 2999.29 3711.86 3012.06L3721.44 3052.51C3745.56 3153.98 3790.62 3204.71 3856.61 3204.71C3892.09 3204.71 3920.12 3193 3940.7 3169.59C3961.99 3145.46 3972.63 3111.76 3972.63 3068.47C3972.63 3026.61 3961.63 2987.58 3939.63 2951.39C3918.35 2915.2 3883.93 2879.37 3836.39 2843.89C3783.88 2806.28 3745.56 2770.09 3721.44 2735.32C3697.31 2699.84 3685.25 2662.24 3685.25 2622.5C3685.25 2569.99 3703.34 2528.12 3739.53 2496.9C3776.43 2464.97 3823.26 2449.01 3880.03 2449.01C3901.32 2449.01 3921.9 2451.49 3941.76 2456.46C3961.63 2461.42 3977.95 2468.52 3990.72 2477.74C3994.98 2480.58 3998.18 2483.78 4000.3 2487.32C4003.14 2490.87 4004.56 2495.48 4004.56 2501.16L4007.75 2661.88C4007.75 2673.94 4003.14 2679.98 3993.92 2679.98C3987.53 2679.98 3982.92 2675.01 3980.08 2665.07L3972.63 2638.46C3957.02 2583.83 3940.7 2544.09 3923.67 2519.25C3907.35 2493.71 3883.58 2480.94 3852.36 2480.94C3821.84 2480.94 3797.36 2490.87 3778.91 2510.74C3761.17 2530.61 3752.3 2558.64 3752.3 2594.83C3752.3 2625.34 3762.24 2654.43 3782.11 2682.1C3801.98 2709.78 3836.75 2743.48 3886.42 2783.22C3939.63 2826.5 3978.31 2868.37 4002.43 2908.82C4027.27 2948.55 4039.69 2991.13 4039.69 3036.54C4039.69 3076.28 4030.82 3111.05 4013.08 3140.85C3995.34 3170.65 3970.86 3194.07 3939.63 3211.1C3909.12 3227.42 3874 3235.58 3834.26 3235.58ZM4526.76 3236.64C4523.92 3236.64 4521.09 3235.58 4518.25 3233.45C4515.41 3231.32 4513.28 3226.71 4511.86 3219.61L4429.9 2889.66C4429.19 2883.98 4427.07 2881.5 4423.52 2882.21C4419.97 2882.21 4417.49 2884.69 4416.07 2889.66L4324.53 3219.61C4322.4 3226.71 4319.92 3231.32 4317.08 3233.45C4314.95 3235.58 4312.47 3236.64 4309.63 3236.64C4306.79 3236.64 4303.6 3235.58 4300.05 3233.45C4297.21 3231.32 4295.08 3226.71 4293.66 3219.61L4125.49 2544.8C4120.53 2524.93 4114.85 2511.09 4108.46 2503.29C4102.79 2495.48 4092.85 2490.16 4078.66 2487.32L4062.69 2484.13C4052.76 2482 4047.79 2477.39 4047.79 2470.29C4047.79 2463.2 4053.12 2459.65 4063.76 2459.65H4235.12C4245.06 2459.65 4250.02 2463.55 4250.02 2471.36C4250.02 2477.74 4244.7 2482 4234.06 2484.13L4222.35 2486.26C4210.29 2488.39 4202.48 2492.65 4198.93 2499.03C4196.1 2504.71 4196.45 2515.35 4200 2530.96L4325.6 3050.38C4327.01 3055.35 4329.14 3057.83 4331.98 3057.83C4335.53 3057.83 4338.01 3055.35 4339.43 3050.38L4387.33 2876.88C4395.13 2849.92 4399.04 2825.09 4399.04 2802.38C4399.04 2779.67 4395.49 2754.48 4388.39 2726.81L4343.69 2544.8C4338.72 2524.93 4333.76 2510.74 4328.79 2502.22C4324.53 2493.71 4318.5 2488.74 4310.69 2487.32L4294.73 2484.13C4284.79 2482 4279.83 2477.39 4279.83 2470.29C4279.83 2463.2 4285.15 2459.65 4295.79 2459.65H4441.61C4451.55 2459.65 4456.51 2463.55 4456.51 2471.36C4456.51 2477.74 4451.19 2482 4440.55 2484.13L4428.84 2486.26C4419.62 2487.68 4413.94 2491.58 4411.81 2497.97C4410.39 2504.35 4411.45 2515.35 4415 2530.96L4451.19 2683.17C4452.61 2688.14 4454.74 2690.62 4457.58 2690.62C4461.13 2690.62 4463.61 2688.14 4465.03 2683.17L4503.35 2553.31C4511.15 2526.35 4513.99 2508.61 4511.86 2500.1C4510.44 2491.58 4506.54 2486.97 4500.15 2486.26L4488.44 2484.13C4477.8 2482 4472.48 2477.74 4472.48 2471.36C4472.48 2463.55 4477.45 2459.65 4487.38 2459.65H4588.5C4600.56 2459.65 4606.59 2463.55 4606.59 2471.36C4606.59 2478.45 4600.56 2482.71 4588.5 2484.13L4576.79 2485.19C4567.56 2485.9 4559.76 2491.58 4553.37 2502.22C4547.69 2512.87 4541.31 2530.25 4534.21 2554.38L4493.77 2693.81C4485.96 2720.07 4481.7 2744.9 4480.99 2768.32C4480.99 2791.03 4484.19 2816.22 4490.57 2843.89L4538.47 3043.99C4539.89 3048.96 4542.02 3051.44 4544.86 3051.44C4548.4 3051.44 4550.53 3048.96 4551.24 3043.99L4673.65 2553.31C4683.58 2512.16 4677.19 2489.81 4654.49 2486.26L4642.78 2484.13C4632.14 2482 4626.81 2477.39 4626.81 2470.29C4626.81 2463.2 4631.78 2459.65 4641.71 2459.65H4760.92C4772.99 2459.65 4779.02 2463.55 4779.02 2471.36C4779.02 2478.45 4772.99 2482.71 4760.92 2484.13L4749.22 2485.19C4739.99 2485.9 4731.83 2491.58 4724.74 2502.22C4718.35 2512.16 4712.32 2529.54 4706.64 2554.38L4541.66 3219.61C4540.24 3226.71 4538.12 3231.32 4535.28 3233.45C4532.44 3235.58 4529.6 3236.64 4526.76 3236.64ZM4781.14 3226C4770.5 3226 4765.17 3222.1 4765.17 3214.29C4765.17 3207.91 4769.79 3203.65 4779.01 3201.52L4803.49 3197.26C4818.39 3194.42 4827.97 3190.52 4832.23 3185.55C4837.2 3180.59 4839.68 3170.65 4839.68 3155.75V2529.9C4839.68 2515 4837.2 2505.06 4832.23 2500.1C4827.97 2495.13 4818.39 2491.23 4803.49 2488.39L4779.01 2484.13C4769.79 2482 4765.17 2477.74 4765.17 2471.36C4765.17 2463.55 4770.5 2459.65 4781.14 2459.65H5138.77C5155.09 2459.65 5163.96 2467.81 5165.38 2484.13L5173.89 2660.82C5175.31 2672.88 5170.7 2678.91 5160.06 2678.91C5151.54 2678.91 5146.57 2674.3 5145.16 2665.07L5138.77 2625.69C5130.96 2577.44 5115 2542.32 5090.87 2520.32C5066.75 2497.61 5033.4 2486.26 4990.82 2486.26C4962.44 2486.26 4942.57 2490.52 4931.22 2499.03C4920.57 2506.84 4915.25 2521.03 4915.25 2541.61V2798.12C4915.25 2808.06 4920.22 2813.02 4930.15 2813.02H4983.37C5014.59 2813.02 5033.75 2796.35 5040.85 2763L5051.49 2709.78C5054.33 2699.13 5060.36 2694.52 5069.59 2695.94C5077.39 2697.36 5081.29 2703.39 5081.29 2714.04V2953.52C5081.29 2964.16 5077.39 2970.2 5069.59 2971.61C5060.36 2973.03 5054.33 2968.42 5051.49 2957.78L5040.85 2905.62C5035.88 2880.79 5028.78 2864.47 5019.56 2856.66C5011.04 2848.86 4998.63 2844.95 4982.31 2844.95H4930.15C4920.22 2844.95 4915.25 2849.92 4915.25 2859.85V3127.01C4915.25 3152.56 4921.64 3171.01 4934.41 3182.36C4947.89 3193.71 4972.02 3199.39 5006.79 3199.39C5042.27 3199.39 5072.42 3190.52 5097.26 3172.78C5122.8 3154.33 5140.54 3120.27 5150.48 3070.6L5163.25 3007.8C5165.38 2998.58 5170.7 2993.97 5179.22 2993.97C5189.15 2993.97 5193.41 3000 5191.99 3012.06L5181.34 3201.52C5179.93 3217.84 5171.06 3226 5154.74 3226H4781.14ZM5264.76 3226C5254.12 3226 5248.8 3222.1 5248.8 3214.29C5248.8 3207.91 5253.41 3203.65 5262.64 3201.52L5287.12 3197.26C5302.02 3194.42 5311.6 3190.52 5315.85 3185.55C5320.82 3180.59 5323.31 3170.65 5323.31 3155.75V2529.9C5323.31 2515 5320.82 2505.06 5315.85 2500.1C5311.6 2495.13 5302.02 2491.23 5287.12 2488.39L5262.64 2484.13C5253.41 2482 5248.8 2477.74 5248.8 2471.36C5248.8 2463.55 5254.12 2459.65 5264.76 2459.65H5622.39C5638.72 2459.65 5647.59 2467.81 5649 2484.13L5657.52 2660.82C5658.94 2672.88 5654.33 2678.91 5643.68 2678.91C5635.17 2678.91 5630.2 2674.3 5628.78 2665.07L5622.39 2625.69C5614.59 2577.44 5598.62 2542.32 5574.5 2520.32C5550.37 2497.61 5517.02 2486.26 5474.45 2486.26C5446.06 2486.26 5426.2 2490.52 5414.84 2499.03C5404.2 2506.84 5398.88 2521.03 5398.88 2541.61V2798.12C5398.88 2808.06 5403.84 2813.02 5413.78 2813.02H5467C5498.22 2813.02 5517.38 2796.35 5524.47 2763L5535.12 2709.78C5537.95 2699.13 5543.99 2694.52 5553.21 2695.94C5561.02 2697.36 5564.92 2703.39 5564.92 2714.04V2953.52C5564.92 2964.16 5561.02 2970.2 5553.21 2971.61C5543.99 2973.03 5537.95 2968.42 5535.12 2957.78L5524.47 2905.62C5519.51 2880.79 5512.41 2864.47 5503.18 2856.66C5494.67 2848.86 5482.25 2844.95 5465.93 2844.95H5413.78C5403.84 2844.95 5398.88 2849.92 5398.88 2859.85V3127.01C5398.88 3152.56 5405.26 3171.01 5418.03 3182.36C5431.52 3193.71 5455.64 3199.39 5490.41 3199.39C5525.89 3199.39 5556.05 3190.52 5580.88 3172.78C5606.43 3154.33 5624.17 3120.27 5634.1 3070.6L5646.88 3007.8C5649 2998.58 5654.33 2993.97 5662.84 2993.97C5672.78 2993.97 5677.03 3000 5675.61 3012.06L5664.97 3201.52C5663.55 3217.84 5654.68 3226 5638.36 3226H5264.76ZM5837.8 3226C5827.15 3226 5821.83 3222.1 5821.83 3214.29C5821.83 3206.49 5826.44 3202.23 5835.67 3201.52L5883.57 3194.07C5897.76 3191.94 5907.34 3188.39 5912.3 3183.42C5917.27 3177.75 5919.75 3167.46 5919.75 3152.56V2513.93C5919.75 2504 5917.63 2496.9 5913.37 2492.65C5909.11 2488.39 5900.24 2486.26 5886.76 2486.26C5860.5 2486.26 5834.6 2497.61 5809.06 2520.32C5783.51 2543.03 5766.84 2579.57 5759.03 2629.95L5753.71 2665.07C5752.29 2674.3 5747.33 2678.91 5738.81 2678.91C5728.17 2678.91 5723.55 2672.88 5724.97 2660.82L5734.55 2468.16C5735.97 2451.84 5742.36 2443.68 5753.71 2443.68C5758.68 2443.68 5763.29 2445.1 5767.55 2447.94C5771.81 2450.07 5778.9 2452.55 5788.84 2455.39C5799.48 2458.23 5816.16 2459.65 5838.86 2459.65H6076.22C6098.92 2459.65 6115.24 2458.23 6125.18 2455.39C6135.82 2452.55 6143.27 2450.07 6147.53 2447.94C6152.5 2445.1 6157.11 2443.68 6161.37 2443.68C6172.72 2443.68 6179.11 2451.84 6180.53 2468.16L6190.11 2660.82C6191.52 2672.88 6186.91 2678.91 6176.27 2678.91C6167.75 2678.91 6162.79 2674.3 6161.37 2665.07L6156.05 2629.95C6148.95 2579.57 6132.63 2543.03 6107.08 2520.32C6081.54 2497.61 6055.28 2486.26 6028.32 2486.26C6014.84 2486.26 6005.97 2488.39 6001.71 2492.65C5997.45 2496.9 5995.33 2504 5995.33 2513.93V3152.56C5995.33 3167.46 5997.81 3177.75 6002.78 3183.42C6008.45 3188.39 6018.03 3191.94 6031.51 3194.07L6079.41 3201.52C6088.64 3202.23 6093.25 3206.49 6093.25 3214.29C6093.25 3222.1 6087.93 3226 6077.28 3226H5837.8ZM6422.52 3226C6411.88 3226 6406.56 3222.1 6406.56 3214.29C6406.56 3207.91 6411.17 3203.65 6420.39 3201.52L6444.87 3197.26C6459.78 3194.42 6469.35 3190.52 6473.61 3185.55C6478.58 3180.59 6481.06 3170.65 6481.06 3155.75V2529.9C6481.06 2515 6478.58 2505.06 6473.61 2500.1C6469.35 2495.13 6459.78 2491.23 6444.87 2488.39L6420.39 2484.13C6411.17 2482 6406.56 2477.74 6406.56 2471.36C6406.56 2463.55 6411.88 2459.65 6422.52 2459.65H6617.3C6627.95 2459.65 6633.27 2463.91 6633.27 2472.42C6633.27 2478.81 6629.37 2482.71 6621.56 2484.13L6592.82 2488.39C6577.92 2490.52 6567.99 2494.42 6563.02 2500.1C6558.76 2505.77 6556.63 2516.06 6556.63 2530.96V2798.12C6556.63 2808.06 6561.6 2813.02 6571.53 2813.02H6782.28C6792.22 2813.02 6797.18 2808.06 6797.18 2798.12V2530.96C6797.18 2516.06 6794.7 2505.77 6789.73 2500.1C6785.47 2494.42 6775.89 2490.52 6760.99 2488.39L6732.26 2484.13C6724.45 2482.71 6720.55 2478.81 6720.55 2472.42C6720.55 2463.91 6725.87 2459.65 6736.51 2459.65H6931.29C6941.94 2459.65 6947.26 2463.55 6947.26 2471.36C6947.26 2477.74 6942.65 2482 6933.42 2484.13L6908.94 2488.39C6894.04 2491.23 6884.11 2495.13 6879.14 2500.1C6874.88 2505.06 6872.75 2515 6872.75 2529.9V3155.75C6872.75 3170.65 6874.88 3180.59 6879.14 3185.55C6884.11 3190.52 6894.04 3194.42 6908.94 3197.26L6933.42 3201.52C6942.65 3203.65 6947.26 3207.91 6947.26 3214.29C6947.26 3222.1 6941.94 3226 6931.29 3226H6736.51C6725.87 3226 6720.55 3221.74 6720.55 3213.23C6720.55 3206.84 6724.45 3202.94 6732.26 3201.52L6760.99 3197.26C6775.89 3195.13 6785.47 3191.23 6789.73 3185.55C6794.7 3179.88 6797.18 3169.59 6797.18 3154.69V2859.85C6797.18 2849.92 6792.22 2844.95 6782.28 2844.95H6571.53C6561.6 2844.95 6556.63 2849.92 6556.63 2859.85V3154.69C6556.63 3169.59 6558.76 3179.88 6563.02 3185.55C6567.99 3191.23 6577.92 3195.13 6592.82 3197.26L6621.56 3201.52C6629.37 3202.94 6633.27 3206.84 6633.27 3213.23C6633.27 3221.74 6627.95 3226 6617.3 3226H6422.52ZM7256.09 3235.58C7222.03 3235.58 7190.09 3225.65 7160.29 3205.78C7130.49 3185.2 7104.24 3157.17 7081.53 3121.69C7059.53 3086.21 7042.15 3044.7 7029.37 2997.16C7017.31 2948.91 7011.28 2897.11 7011.28 2841.76C7011.28 2786.41 7017.31 2734.97 7029.37 2687.43C7042.15 2639.88 7059.53 2598.37 7081.53 2562.89C7104.24 2526.71 7130.49 2498.68 7160.29 2478.81C7190.09 2458.94 7222.03 2449.01 7256.09 2449.01C7290.15 2449.01 7321.72 2458.94 7350.82 2478.81C7380.62 2498.68 7406.87 2526.71 7429.58 2562.89C7452.29 2598.37 7469.67 2639.88 7481.73 2687.43C7494.51 2734.97 7500.89 2786.41 7500.89 2841.76C7500.89 2897.11 7494.51 2948.91 7481.73 2997.16C7469.67 3044.7 7452.29 3086.21 7429.58 3121.69C7406.87 3157.17 7380.62 3185.2 7350.82 3205.78C7321.72 3225.65 7290.15 3235.58 7256.09 3235.58ZM7256.09 3206.84C7306.47 3206.84 7345.85 3176.68 7374.23 3116.37C7402.61 3056.05 7416.81 2964.52 7416.81 2841.76C7416.81 2719 7402.61 2627.82 7374.23 2568.22C7345.85 2507.9 7306.47 2477.74 7256.09 2477.74C7206.42 2477.74 7167.03 2507.9 7137.94 2568.22C7109.56 2627.82 7095.37 2719 7095.37 2841.76C7095.37 2964.52 7109.56 3056.05 7137.94 3116.37C7167.03 3176.68 7206.42 3206.84 7256.09 3206.84ZM7880.12 3215.36C7877.28 3215.36 7874.09 3214.29 7870.54 3212.16C7866.99 3210.03 7864.51 3205.42 7863.09 3198.33L7702.37 2545.86C7701.66 2540.9 7699.53 2538.77 7695.98 2539.48C7692.43 2539.48 7690.66 2541.96 7690.66 2546.93L7669.37 3134.46C7668.66 3154.33 7671.85 3169.59 7678.95 3180.23C7686.05 3190.17 7698.46 3196.55 7716.2 3199.39L7730.04 3201.52C7739.26 3202.23 7743.88 3206.49 7743.88 3214.29C7743.88 3222.1 7738.56 3226 7727.91 3226H7575.71C7565.06 3226 7559.74 3222.1 7559.74 3214.29C7559.74 3206.49 7564.35 3202.23 7573.58 3201.52L7587.41 3199.39C7605.86 3196.55 7618.28 3190.17 7624.67 3180.23C7631.76 3169.59 7635.67 3154.33 7636.38 3134.46L7657.66 2529.9C7658.37 2515 7656.24 2505.06 7651.28 2500.1C7646.31 2495.13 7635.67 2491.23 7619.35 2488.39L7594.86 2484.13C7585.64 2482 7581.03 2477.74 7581.03 2471.36C7581.03 2463.55 7586.35 2459.65 7596.99 2459.65H7724.72C7746.72 2459.65 7760.2 2470.29 7765.16 2491.58L7893.95 3022.7C7895.37 3027.67 7897.5 3030.15 7900.34 3030.15C7903.89 3030.15 7906.02 3027.67 7906.73 3022.7L8040.84 2486.26C8045.1 2468.52 8056.45 2459.65 8074.9 2459.65H8200.49C8211.14 2459.65 8216.46 2463.55 8216.46 2471.36C8216.46 2477.74 8211.85 2482 8202.62 2484.13L8178.14 2488.39C8163.24 2491.23 8153.31 2495.13 8148.34 2500.1C8143.37 2505.06 8141.24 2515 8141.95 2529.9L8163.24 3155.75C8163.95 3170.65 8166.43 3180.59 8170.69 3185.55C8174.95 3190.52 8184.53 3194.42 8199.43 3197.26L8223.91 3201.52C8233.13 3203.65 8237.75 3207.91 8237.75 3214.29C8237.75 3222.1 8232.43 3226 8221.78 3226H8029.13C8018.49 3226 8013.16 3222.1 8013.16 3214.29C8013.16 3207.91 8017.78 3203.65 8027 3201.52L8051.48 3197.26C8066.38 3194.42 8076.32 3190.52 8081.28 3185.55C8086.25 3180.59 8088.38 3170.65 8087.67 3155.75L8069.58 2546.93C8069.58 2541.96 8067.8 2539.48 8064.25 2539.48C8061.42 2538.77 8059.29 2540.54 8057.87 2544.8L7896.08 3198.33C7894.66 3205.42 7892.18 3210.03 7888.63 3212.16C7885.79 3214.29 7882.96 3215.36 7880.12 3215.36ZM8281.89 3226C8271.25 3226 8265.93 3222.1 8265.93 3214.29C8265.93 3207.91 8270.54 3203.65 8279.77 3201.52L8304.25 3197.26C8319.15 3194.42 8328.73 3190.52 8332.98 3185.55C8337.95 3180.59 8340.43 3170.65 8340.43 3155.75V2529.9C8340.43 2515 8337.95 2505.06 8332.98 2500.1C8328.73 2495.13 8319.15 2491.23 8304.25 2488.39L8279.77 2484.13C8270.54 2482 8265.93 2477.74 8265.93 2471.36C8265.93 2463.55 8271.25 2459.65 8281.89 2459.65H8639.52C8655.84 2459.65 8664.71 2467.81 8666.13 2484.13L8674.65 2660.82C8676.07 2672.88 8671.46 2678.91 8660.81 2678.91C8652.3 2678.91 8647.33 2674.3 8645.91 2665.07L8639.52 2625.69C8631.72 2577.44 8615.75 2542.32 8591.63 2520.32C8567.5 2497.61 8534.15 2486.26 8491.58 2486.26C8463.19 2486.26 8443.32 2490.52 8431.97 2499.03C8421.33 2506.84 8416.01 2521.03 8416.01 2541.61V2798.12C8416.01 2808.06 8420.97 2813.02 8430.91 2813.02H8484.13C8515.35 2813.02 8534.51 2796.35 8541.6 2763L8552.25 2709.78C8555.08 2699.13 8561.11 2694.52 8570.34 2695.94C8578.14 2697.36 8582.05 2703.39 8582.05 2714.04V2953.52C8582.05 2964.16 8578.14 2970.2 8570.34 2971.61C8561.11 2973.03 8555.08 2968.42 8552.25 2957.78L8541.6 2905.62C8536.63 2880.79 8529.54 2864.47 8520.31 2856.66C8511.8 2848.86 8499.38 2844.95 8483.06 2844.95H8430.91C8420.97 2844.95 8416.01 2849.92 8416.01 2859.85V3127.01C8416.01 3152.56 8422.39 3171.01 8435.16 3182.36C8448.65 3193.71 8472.77 3199.39 8507.54 3199.39C8543.02 3199.39 8573.18 3190.52 8598.01 3172.78C8623.56 3154.33 8641.3 3120.27 8651.23 3070.6L8664 3007.8C8666.13 2998.58 8671.46 2993.97 8679.97 2993.97C8689.9 2993.97 8694.16 3000 8692.74 3012.06L8682.1 3201.52C8680.68 3217.84 8671.81 3226 8655.49 3226H8281.89Z" fill="white"/>
</svg>
