<svg width="2230" height="2500" viewBox="0 0 2230 2500" fill="none" xmlns="http://www.w3.org/2000/svg">
<rect x="1110" y="413" width="10" height="559" fill="#FFD37A"/>
<path d="M1234.91 1681.07C1230.91 1681.07 1226.41 1680.67 1221.41 1679.87C1216.61 1679.07 1212.01 1678.07 1207.61 1676.87C1203.41 1675.67 1200.11 1674.37 1197.71 1672.97C1196.31 1672.17 1195.21 1671.37 1194.41 1670.57C1193.81 1669.57 1193.51 1667.97 1193.51 1665.77L1192.01 1618.67C1192.01 1614.67 1193.31 1612.67 1195.91 1612.67C1198.11 1612.67 1199.61 1614.47 1200.41 1618.07L1203.11 1629.47C1209.91 1658.07 1222.61 1672.37 1241.21 1672.37C1251.21 1672.37 1259.11 1669.07 1264.91 1662.47C1270.91 1655.67 1273.91 1646.17 1273.91 1633.97C1273.91 1622.17 1270.81 1611.17 1264.61 1600.97C1258.61 1590.77 1248.91 1580.67 1235.51 1570.67C1220.71 1560.07 1209.91 1549.87 1203.11 1540.07C1196.31 1530.07 1192.91 1519.47 1192.91 1508.27C1192.91 1493.47 1198.01 1481.67 1208.21 1472.87C1218.61 1463.87 1231.81 1459.37 1247.81 1459.37C1253.81 1459.37 1259.61 1460.07 1265.21 1461.47C1270.81 1462.87 1275.41 1464.87 1279.01 1467.47C1280.21 1468.27 1281.11 1469.17 1281.71 1470.17C1282.51 1471.17 1282.91 1472.47 1282.91 1474.07L1283.81 1519.37C1283.81 1522.77 1282.51 1524.47 1279.91 1524.47C1278.11 1524.47 1276.81 1523.07 1276.01 1520.27L1273.91 1512.77C1269.51 1497.37 1264.91 1486.17 1260.11 1479.17C1255.51 1471.97 1248.81 1468.37 1240.01 1468.37C1231.41 1468.37 1224.51 1471.17 1219.31 1476.77C1214.31 1482.37 1211.81 1490.27 1211.81 1500.47C1211.81 1509.07 1214.61 1517.27 1220.21 1525.07C1225.81 1532.87 1235.61 1542.37 1249.61 1553.57C1264.61 1565.77 1275.51 1577.57 1282.31 1588.97C1289.31 1600.17 1292.81 1612.17 1292.81 1624.97C1292.81 1636.17 1290.31 1645.97 1285.31 1654.37C1280.31 1662.77 1273.41 1669.37 1264.61 1674.17C1256.01 1678.77 1246.11 1681.07 1234.91 1681.07ZM1430.72 1681.37C1429.92 1681.37 1429.12 1681.07 1428.32 1680.47C1427.52 1679.87 1426.92 1678.57 1426.52 1676.57L1403.42 1583.57C1403.22 1581.97 1402.62 1581.27 1401.62 1581.47C1400.62 1581.47 1399.92 1582.17 1399.52 1583.57L1373.72 1676.57C1373.12 1678.57 1372.42 1679.87 1371.62 1680.47C1371.02 1681.07 1370.32 1681.37 1369.52 1681.37C1368.72 1681.37 1367.82 1681.07 1366.82 1680.47C1366.02 1679.87 1365.42 1678.57 1365.02 1676.57L1317.62 1486.37C1316.22 1480.77 1314.62 1476.87 1312.82 1474.67C1311.22 1472.47 1308.42 1470.97 1304.42 1470.17L1299.92 1469.27C1297.12 1468.67 1295.72 1467.37 1295.72 1465.37C1295.72 1463.37 1297.22 1462.37 1300.22 1462.37H1348.52C1351.32 1462.37 1352.72 1463.47 1352.72 1465.67C1352.72 1467.47 1351.22 1468.67 1348.22 1469.27L1344.92 1469.87C1341.52 1470.47 1339.32 1471.67 1338.32 1473.47C1337.52 1475.07 1337.62 1478.07 1338.62 1482.47L1374.02 1628.87C1374.42 1630.27 1375.02 1630.97 1375.82 1630.97C1376.82 1630.97 1377.52 1630.27 1377.92 1628.87L1391.42 1579.97C1393.62 1572.37 1394.72 1565.37 1394.72 1558.97C1394.72 1552.57 1393.72 1545.47 1391.72 1537.67L1379.12 1486.37C1377.72 1480.77 1376.32 1476.77 1374.92 1474.37C1373.72 1471.97 1372.02 1470.57 1369.82 1470.17L1365.32 1469.27C1362.52 1468.67 1361.12 1467.37 1361.12 1465.37C1361.12 1463.37 1362.62 1462.37 1365.62 1462.37H1406.72C1409.52 1462.37 1410.92 1463.47 1410.92 1465.67C1410.92 1467.47 1409.42 1468.67 1406.42 1469.27L1403.12 1469.87C1400.52 1470.27 1398.92 1471.37 1398.32 1473.17C1397.92 1474.97 1398.22 1478.07 1399.22 1482.47L1409.42 1525.37C1409.82 1526.77 1410.42 1527.47 1411.22 1527.47C1412.22 1527.47 1412.92 1526.77 1413.32 1525.37L1424.12 1488.77C1426.32 1481.17 1427.12 1476.17 1426.52 1473.77C1426.12 1471.37 1425.02 1470.07 1423.22 1469.87L1419.92 1469.27C1416.92 1468.67 1415.42 1467.47 1415.42 1465.67C1415.42 1463.47 1416.82 1462.37 1419.62 1462.37H1448.12C1451.52 1462.37 1453.22 1463.47 1453.22 1465.67C1453.22 1467.67 1451.52 1468.87 1448.12 1469.27L1444.82 1469.57C1442.22 1469.77 1440.02 1471.37 1438.22 1474.37C1436.62 1477.37 1434.82 1482.27 1432.82 1489.07L1421.42 1528.37C1419.22 1535.77 1418.02 1542.77 1417.82 1549.37C1417.82 1555.77 1418.72 1562.87 1420.52 1570.67L1434.02 1627.07C1434.42 1628.47 1435.02 1629.17 1435.82 1629.17C1436.82 1629.17 1437.42 1628.47 1437.62 1627.07L1472.12 1488.77C1474.92 1477.17 1473.12 1470.87 1466.72 1469.87L1463.42 1469.27C1460.42 1468.67 1458.92 1467.37 1458.92 1465.37C1458.92 1463.37 1460.32 1462.37 1463.12 1462.37H1496.72C1500.12 1462.37 1501.82 1463.47 1501.82 1465.67C1501.82 1467.67 1500.12 1468.87 1496.72 1469.27L1493.42 1469.57C1490.82 1469.77 1488.52 1471.37 1486.52 1474.37C1484.72 1477.17 1483.02 1482.07 1481.42 1489.07L1434.92 1676.57C1434.52 1678.57 1433.92 1679.87 1433.12 1680.47C1432.32 1681.07 1431.52 1681.37 1430.72 1681.37ZM1503.04 1678.37C1500.04 1678.37 1498.54 1677.27 1498.54 1675.07C1498.54 1673.27 1499.84 1672.07 1502.44 1671.47L1509.34 1670.27C1513.54 1669.47 1516.24 1668.37 1517.44 1666.97C1518.84 1665.57 1519.54 1662.77 1519.54 1658.57V1482.17C1519.54 1477.97 1518.84 1475.17 1517.44 1473.77C1516.24 1472.37 1513.54 1471.27 1509.34 1470.47L1502.44 1469.27C1499.84 1468.67 1498.54 1467.47 1498.54 1465.67C1498.54 1463.47 1500.04 1462.37 1503.04 1462.37H1603.84C1608.44 1462.37 1610.94 1464.67 1611.34 1469.27L1613.74 1519.07C1614.14 1522.47 1612.84 1524.17 1609.84 1524.17C1607.44 1524.17 1606.04 1522.87 1605.64 1520.27L1603.84 1509.17C1601.64 1495.57 1597.14 1485.67 1590.34 1479.47C1583.54 1473.07 1574.14 1469.87 1562.14 1469.87C1554.14 1469.87 1548.54 1471.07 1545.34 1473.47C1542.34 1475.67 1540.84 1479.67 1540.84 1485.47V1557.77C1540.84 1560.57 1542.24 1561.97 1545.04 1561.97H1560.04C1568.84 1561.97 1574.24 1557.27 1576.24 1547.87L1579.24 1532.87C1580.04 1529.87 1581.74 1528.57 1584.34 1528.97C1586.54 1529.37 1587.64 1531.07 1587.64 1534.07V1601.57C1587.64 1604.57 1586.54 1606.27 1584.34 1606.67C1581.74 1607.07 1580.04 1605.77 1579.24 1602.77L1576.24 1588.07C1574.84 1581.07 1572.84 1576.47 1570.24 1574.27C1567.84 1572.07 1564.34 1570.97 1559.74 1570.97H1545.04C1542.24 1570.97 1540.84 1572.37 1540.84 1575.17V1650.47C1540.84 1657.67 1542.64 1662.87 1546.24 1666.07C1550.04 1669.27 1556.84 1670.87 1566.64 1670.87C1576.64 1670.87 1585.14 1668.37 1592.14 1663.37C1599.34 1658.17 1604.34 1648.57 1607.14 1634.57L1610.74 1616.87C1611.34 1614.27 1612.84 1612.97 1615.24 1612.97C1618.04 1612.97 1619.24 1614.67 1618.84 1618.07L1615.84 1671.47C1615.44 1676.07 1612.94 1678.37 1608.34 1678.37H1503.04ZM1639.98 1678.37C1636.98 1678.37 1635.48 1677.27 1635.48 1675.07C1635.48 1673.27 1636.78 1672.07 1639.38 1671.47L1646.28 1670.27C1650.48 1669.47 1653.18 1668.37 1654.38 1666.97C1655.78 1665.57 1656.48 1662.77 1656.48 1658.57V1482.17C1656.48 1477.97 1655.78 1475.17 1654.38 1473.77C1653.18 1472.37 1650.48 1471.27 1646.28 1470.47L1639.38 1469.27C1636.78 1468.67 1635.48 1467.47 1635.48 1465.67C1635.48 1463.47 1636.98 1462.37 1639.98 1462.37H1740.78C1745.38 1462.37 1747.88 1464.67 1748.28 1469.27L1750.68 1519.07C1751.08 1522.47 1749.78 1524.17 1746.78 1524.17C1744.38 1524.17 1742.98 1522.87 1742.58 1520.27L1740.78 1509.17C1738.58 1495.57 1734.08 1485.67 1727.28 1479.47C1720.48 1473.07 1711.08 1469.87 1699.08 1469.87C1691.08 1469.87 1685.48 1471.07 1682.28 1473.47C1679.28 1475.67 1677.78 1479.67 1677.78 1485.47V1557.77C1677.78 1560.57 1679.18 1561.97 1681.98 1561.97H1696.98C1705.78 1561.97 1711.18 1557.27 1713.18 1547.87L1716.18 1532.87C1716.98 1529.87 1718.68 1528.57 1721.28 1528.97C1723.48 1529.37 1724.58 1531.07 1724.58 1534.07V1601.57C1724.58 1604.57 1723.48 1606.27 1721.28 1606.67C1718.68 1607.07 1716.98 1605.77 1716.18 1602.77L1713.18 1588.07C1711.78 1581.07 1709.78 1576.47 1707.18 1574.27C1704.78 1572.07 1701.28 1570.97 1696.68 1570.97H1681.98C1679.18 1570.97 1677.78 1572.37 1677.78 1575.17V1650.47C1677.78 1657.67 1679.58 1662.87 1683.18 1666.07C1686.98 1669.27 1693.78 1670.87 1703.58 1670.87C1713.58 1670.87 1722.08 1668.37 1729.08 1663.37C1736.28 1658.17 1741.28 1648.57 1744.08 1634.57L1747.68 1616.87C1748.28 1614.27 1749.78 1612.97 1752.18 1612.97C1754.98 1612.97 1756.18 1614.67 1755.78 1618.07L1752.78 1671.47C1752.38 1676.07 1749.88 1678.37 1745.28 1678.37H1639.98ZM1802.12 1678.37C1799.12 1678.37 1797.62 1677.27 1797.62 1675.07C1797.62 1672.87 1798.92 1671.67 1801.52 1671.47L1815.02 1669.37C1819.02 1668.77 1821.72 1667.77 1823.12 1666.37C1824.52 1664.77 1825.22 1661.87 1825.22 1657.67V1477.67C1825.22 1474.87 1824.62 1472.87 1823.42 1471.67C1822.22 1470.47 1819.72 1469.87 1815.92 1469.87C1808.52 1469.87 1801.22 1473.07 1794.02 1479.47C1786.82 1485.87 1782.12 1496.17 1779.92 1510.37L1778.42 1520.27C1778.02 1522.87 1776.62 1524.17 1774.22 1524.17C1771.22 1524.17 1769.92 1522.47 1770.32 1519.07L1773.02 1464.77C1773.42 1460.17 1775.22 1457.87 1778.42 1457.87C1779.82 1457.87 1781.12 1458.27 1782.32 1459.07C1783.52 1459.67 1785.52 1460.37 1788.32 1461.17C1791.32 1461.97 1796.02 1462.37 1802.42 1462.37H1869.32C1875.72 1462.37 1880.32 1461.97 1883.12 1461.17C1886.12 1460.37 1888.22 1459.67 1889.42 1459.07C1890.82 1458.27 1892.12 1457.87 1893.32 1457.87C1896.52 1457.87 1898.32 1460.17 1898.72 1464.77L1901.42 1519.07C1901.82 1522.47 1900.52 1524.17 1897.52 1524.17C1895.12 1524.17 1893.72 1522.87 1893.32 1520.27L1891.82 1510.37C1889.82 1496.17 1885.22 1485.87 1878.02 1479.47C1870.82 1473.07 1863.42 1469.87 1855.82 1469.87C1852.02 1469.87 1849.52 1470.47 1848.32 1471.67C1847.12 1472.87 1846.52 1474.87 1846.52 1477.67V1657.67C1846.52 1661.87 1847.22 1664.77 1848.62 1666.37C1850.22 1667.77 1852.92 1668.77 1856.72 1669.37L1870.22 1671.47C1872.82 1671.67 1874.12 1672.87 1874.12 1675.07C1874.12 1677.27 1872.62 1678.37 1869.62 1678.37H1802.12ZM1254.31 1918.37C1251.31 1918.37 1249.81 1917.27 1249.81 1915.07C1249.81 1913.27 1251.11 1912.07 1253.71 1911.47L1260.61 1910.27C1264.81 1909.47 1267.51 1908.37 1268.71 1906.97C1270.11 1905.57 1270.81 1902.77 1270.81 1898.57V1722.17C1270.81 1717.97 1270.11 1715.17 1268.71 1713.77C1267.51 1712.37 1264.81 1711.27 1260.61 1710.47L1253.71 1709.27C1251.11 1708.67 1249.81 1707.47 1249.81 1705.67C1249.81 1703.47 1251.31 1702.37 1254.31 1702.37H1309.21C1312.21 1702.37 1313.71 1703.57 1313.71 1705.97C1313.71 1707.77 1312.61 1708.87 1310.41 1709.27L1302.31 1710.47C1298.11 1711.07 1295.31 1712.17 1293.91 1713.77C1292.71 1715.37 1292.11 1718.27 1292.11 1722.47V1797.77C1292.11 1800.57 1293.51 1801.97 1296.31 1801.97H1355.71C1358.51 1801.97 1359.91 1800.57 1359.91 1797.77V1722.47C1359.91 1718.27 1359.21 1715.37 1357.81 1713.77C1356.61 1712.17 1353.91 1711.07 1349.71 1710.47L1341.61 1709.27C1339.41 1708.87 1338.31 1707.77 1338.31 1705.97C1338.31 1703.57 1339.81 1702.37 1342.81 1702.37H1397.71C1400.71 1702.37 1402.21 1703.47 1402.21 1705.67C1402.21 1707.47 1400.91 1708.67 1398.31 1709.27L1391.41 1710.47C1387.21 1711.27 1384.41 1712.37 1383.01 1713.77C1381.81 1715.17 1381.21 1717.97 1381.21 1722.17V1898.57C1381.21 1902.77 1381.81 1905.57 1383.01 1906.97C1384.41 1908.37 1387.21 1909.47 1391.41 1910.27L1398.31 1911.47C1400.91 1912.07 1402.21 1913.27 1402.21 1915.07C1402.21 1917.27 1400.71 1918.37 1397.71 1918.37H1342.81C1339.81 1918.37 1338.31 1917.17 1338.31 1914.77C1338.31 1912.97 1339.41 1911.87 1341.61 1911.47L1349.71 1910.27C1353.91 1909.67 1356.61 1908.57 1357.81 1906.97C1359.21 1905.37 1359.91 1902.47 1359.91 1898.27V1815.17C1359.91 1812.37 1358.51 1810.97 1355.71 1810.97H1296.31C1293.51 1810.97 1292.11 1812.37 1292.11 1815.17V1898.27C1292.11 1902.47 1292.71 1905.37 1293.91 1906.97C1295.31 1908.57 1298.11 1909.67 1302.31 1910.27L1310.41 1911.47C1312.61 1911.87 1313.71 1912.97 1313.71 1914.77C1313.71 1917.17 1312.21 1918.37 1309.21 1918.37H1254.31ZM1489.88 1921.07C1480.28 1921.07 1471.28 1918.27 1462.88 1912.67C1454.48 1906.87 1447.08 1898.97 1440.68 1888.97C1434.48 1878.97 1429.58 1867.27 1425.98 1853.87C1422.58 1840.27 1420.88 1825.67 1420.88 1810.07C1420.88 1794.47 1422.58 1779.97 1425.98 1766.57C1429.58 1753.17 1434.48 1741.47 1440.68 1731.47C1447.08 1721.27 1454.48 1713.37 1462.88 1707.77C1471.28 1702.17 1480.28 1699.37 1489.88 1699.37C1499.48 1699.37 1508.38 1702.17 1516.58 1707.77C1524.98 1713.37 1532.38 1721.27 1538.78 1731.47C1545.18 1741.47 1550.08 1753.17 1553.48 1766.57C1557.08 1779.97 1558.88 1794.47 1558.88 1810.07C1558.88 1825.67 1557.08 1840.27 1553.48 1853.87C1550.08 1867.27 1545.18 1878.97 1538.78 1888.97C1532.38 1898.97 1524.98 1906.87 1516.58 1912.67C1508.38 1918.27 1499.48 1921.07 1489.88 1921.07ZM1489.88 1912.97C1504.08 1912.97 1515.18 1904.47 1523.18 1887.47C1531.18 1870.47 1535.18 1844.67 1535.18 1810.07C1535.18 1775.47 1531.18 1749.77 1523.18 1732.97C1515.18 1715.97 1504.08 1707.47 1489.88 1707.47C1475.88 1707.47 1464.78 1715.97 1456.58 1732.97C1448.58 1749.77 1444.58 1775.47 1444.58 1810.07C1444.58 1844.67 1448.58 1870.47 1456.58 1887.47C1464.78 1904.47 1475.88 1912.97 1489.88 1912.97ZM1666.39 1915.37C1665.59 1915.37 1664.69 1915.07 1663.69 1914.47C1662.69 1913.87 1661.99 1912.57 1661.59 1910.57L1616.29 1726.67C1616.09 1725.27 1615.49 1724.67 1614.49 1724.87C1613.49 1724.87 1612.99 1725.57 1612.99 1726.97L1606.99 1892.57C1606.79 1898.17 1607.69 1902.47 1609.69 1905.47C1611.69 1908.27 1615.19 1910.07 1620.19 1910.87L1624.09 1911.47C1626.69 1911.67 1627.99 1912.87 1627.99 1915.07C1627.99 1917.27 1626.49 1918.37 1623.49 1918.37H1580.59C1577.59 1918.37 1576.09 1917.27 1576.09 1915.07C1576.09 1912.87 1577.39 1911.67 1579.99 1911.47L1583.89 1910.87C1589.09 1910.07 1592.59 1908.27 1594.39 1905.47C1596.39 1902.47 1597.49 1898.17 1597.69 1892.57L1603.69 1722.17C1603.89 1717.97 1603.29 1715.17 1601.89 1713.77C1600.49 1712.37 1597.49 1711.27 1592.89 1710.47L1585.99 1709.27C1583.39 1708.67 1582.09 1707.47 1582.09 1705.67C1582.09 1703.47 1583.59 1702.37 1586.59 1702.37H1622.59C1628.79 1702.37 1632.59 1705.37 1633.99 1711.37L1670.29 1861.07C1670.69 1862.47 1671.29 1863.17 1672.09 1863.17C1673.09 1863.17 1673.69 1862.47 1673.89 1861.07L1711.69 1709.87C1712.89 1704.87 1716.09 1702.37 1721.29 1702.37H1756.69C1759.69 1702.37 1761.19 1703.47 1761.19 1705.67C1761.19 1707.47 1759.89 1708.67 1757.29 1709.27L1750.39 1710.47C1746.19 1711.27 1743.39 1712.37 1741.99 1713.77C1740.59 1715.17 1739.99 1717.97 1740.19 1722.17L1746.19 1898.57C1746.39 1902.77 1747.09 1905.57 1748.29 1906.97C1749.49 1908.37 1752.19 1909.47 1756.39 1910.27L1763.29 1911.47C1765.89 1912.07 1767.19 1913.27 1767.19 1915.07C1767.19 1917.27 1765.69 1918.37 1762.69 1918.37H1708.39C1705.39 1918.37 1703.89 1917.27 1703.89 1915.07C1703.89 1913.27 1705.19 1912.07 1707.79 1911.47L1714.69 1910.27C1718.89 1909.47 1721.69 1908.37 1723.09 1906.97C1724.49 1905.57 1725.09 1902.77 1724.89 1898.57L1719.79 1726.97C1719.79 1725.57 1719.29 1724.87 1718.29 1724.87C1717.49 1724.67 1716.89 1725.17 1716.49 1726.37L1670.89 1910.57C1670.49 1912.57 1669.79 1913.87 1668.79 1914.47C1667.99 1915.07 1667.19 1915.37 1666.39 1915.37ZM1780.26 1918.37C1777.26 1918.37 1775.76 1917.27 1775.76 1915.07C1775.76 1913.27 1777.06 1912.07 1779.66 1911.47L1786.56 1910.27C1790.76 1909.47 1793.46 1908.37 1794.66 1906.97C1796.06 1905.57 1796.76 1902.77 1796.76 1898.57V1722.17C1796.76 1717.97 1796.06 1715.17 1794.66 1713.77C1793.46 1712.37 1790.76 1711.27 1786.56 1710.47L1779.66 1709.27C1777.06 1708.67 1775.76 1707.47 1775.76 1705.67C1775.76 1703.47 1777.26 1702.37 1780.26 1702.37H1881.06C1885.66 1702.37 1888.16 1704.67 1888.56 1709.27L1890.96 1759.07C1891.36 1762.47 1890.06 1764.17 1887.06 1764.17C1884.66 1764.17 1883.26 1762.87 1882.86 1760.27L1881.06 1749.17C1878.86 1735.57 1874.36 1725.67 1867.56 1719.47C1860.76 1713.07 1851.36 1709.87 1839.36 1709.87C1831.36 1709.87 1825.76 1711.07 1822.56 1713.47C1819.56 1715.67 1818.06 1719.67 1818.06 1725.47V1797.77C1818.06 1800.57 1819.46 1801.97 1822.26 1801.97H1837.26C1846.06 1801.97 1851.46 1797.27 1853.46 1787.87L1856.46 1772.87C1857.26 1769.87 1858.96 1768.57 1861.56 1768.97C1863.76 1769.37 1864.86 1771.07 1864.86 1774.07V1841.57C1864.86 1844.57 1863.76 1846.27 1861.56 1846.67C1858.96 1847.07 1857.26 1845.77 1856.46 1842.77L1853.46 1828.07C1852.06 1821.07 1850.06 1816.47 1847.46 1814.27C1845.06 1812.07 1841.56 1810.97 1836.96 1810.97H1822.26C1819.46 1810.97 1818.06 1812.37 1818.06 1815.17V1890.47C1818.06 1897.67 1819.86 1902.87 1823.46 1906.07C1827.26 1909.27 1834.06 1910.87 1843.86 1910.87C1853.86 1910.87 1862.36 1908.37 1869.36 1903.37C1876.56 1898.17 1881.56 1888.57 1884.36 1874.57L1887.96 1856.87C1888.56 1854.27 1890.06 1852.97 1892.46 1852.97C1895.26 1852.97 1896.46 1854.67 1896.06 1858.07L1893.06 1911.47C1892.66 1916.07 1890.16 1918.37 1885.56 1918.37H1780.26Z" fill="white"/>
<rect x="1097" y="943.366" width="37" height="57" rx="5" fill="white"/>
<circle cx="1115" cy="1166.37" r="175" fill="#FFDE59"/>
<rect x="940" y="1090.37" width="350" height="16" rx="5" fill="#FFD37A"/>
<path d="M1275 1089.87C1275 1060.56 1258.14 1032.45 1228.14 1011.73C1198.13 991.008 1157.43 979.366 1115 979.366C1072.57 979.366 1031.87 991.008 1001.86 1011.73C971.857 1032.45 955 1060.56 955 1089.87L1115 1089.87H1275Z" fill="white"/>
<rect x="1831" y="1999.37" width="65" height="150" fill="white"/>
<rect x="1831" y="810.366" width="65" height="583" fill="white"/>
<rect x="1900.95" y="809.939" width="65" height="910.222" transform="rotate(120.349 1900.95 809.939)" fill="white"/>
<rect x="361.843" y="866.009" width="65" height="910.22" transform="rotate(-120.35 361.843 866.009)" fill="white"/>
<rect x="324" y="810.366" width="65" height="1339" fill="white"/>
<rect x="352" y="2149.37" width="65" height="1527" transform="rotate(-90 352 2149.37)" fill="white"/>
</svg>
